REM DIRINDEX 1\2,1\3,1\4
REM DIRNAME cjc153,folder01,folder02,folder03
TITLE ""
FILE "Track11.mp3" MP3
  TRACK 01 AUDIO
    TITLE "0:"
    INDEX 01 00:00:00
  TRACK 02 AUDIO
    TITLE "4:cjc153_0615"
    INDEX 01 00:00:05
  TRACK 03 AUDIO
    TITLE "0:"
    INDEX 01 00:01:64
  TRACK 04 AUDIO
    TITLE "2:cjc153_0616"
    INDEX 01 00:02:40
  TRACK 05 AUDIO
    TITLE "0:"
    INDEX 01 00:03:49
  TRACK 06 AUDIO
    TITLE "3:cjc153_0617"
    INDEX 01 00:04:05
  TRACK 07 AUDIO
    TITLE "0:"
    INDEX 01 00:05:16
  TRACK 08 AUDIO
    TITLE "2:cjc153_0618"
    INDEX 01 00:05:59
  TRACK 09 AUDIO
    TITLE "0:"
    INDEX 01 00:06:59
  TRACK 10 AUDIO
    TITLE "3:cjc153_0619"
    INDEX 01 00:07:09
  TRACK 11 AUDIO
    TITLE "0:"
    INDEX 01 00:08:11
  TRACK 12 AUDIO
    TITLE "2:cjc153_0620"
    INDEX 01 00:08:46
  TRACK 13 AUDIO
    TITLE "0:"
    INDEX 01 00:09:47
  TRACK 14 AUDIO
    TITLE "3:cjc153_0621"
    INDEX 01 00:09:71
  TRACK 15 AUDIO
    TITLE "0:"
    INDEX 01 00:10:74
  TRACK 16 AUDIO
    TITLE "2:cjc153_0622"
    INDEX 01 00:11:39
  TRACK 17 AUDIO
    TITLE "0:"
    INDEX 01 00:12:36
  TRACK 18 AUDIO
    TITLE "3:cjc153_0623"
    INDEX 01 00:12:61
  TRACK 19 AUDIO
    TITLE "0:"
    INDEX 01 00:13:63
  TRACK 20 AUDIO
    TITLE "2:cjc153_0624"
    INDEX 01 00:14:27
  TRACK 21 AUDIO
    TITLE "0:"
    INDEX 01 00:15:50
  TRACK 22 AUDIO
    TITLE "3:cjc153_0625"
    INDEX 01 00:15:74
  TRACK 23 AUDIO
    TITLE "0:"
    INDEX 01 00:17:23
  TRACK 24 AUDIO
    TITLE "2:cjc153_0626"
    INDEX 01 00:17:67
  TRACK 25 AUDIO
    TITLE "0:"
    INDEX 01 00:18:70
  TRACK 26 AUDIO
    TITLE "3:cjc153_0627"
    INDEX 01 00:19:20
  TRACK 27 AUDIO
    TITLE "0:"
    INDEX 01 00:20:30
  TRACK 28 AUDIO
    TITLE "2:cjc153_0628"
    INDEX 01 00:20:69
  TRACK 29 AUDIO
    TITLE "0:"
    INDEX 01 00:22:03
  TRACK 30 AUDIO
    TITLE "3:cjc153_0629"
    INDEX 01 00:22:29
  TRACK 31 AUDIO
    TITLE "0:"
    INDEX 01 00:23:40
  TRACK 32 AUDIO
    TITLE "2:cjc153_0630"
    INDEX 01 00:24:04
  TRACK 33 AUDIO
    TITLE "0:"
    INDEX 01 00:25:03
  TRACK 34 AUDIO
    TITLE "3:cjc153_0631"
    INDEX 01 00:25:29
  TRACK 35 AUDIO
    TITLE "0:"
    INDEX 01 00:26:34
  TRACK 36 AUDIO
    TITLE "2:cjc153_0632"
    INDEX 01 00:26:71
  TRACK 37 AUDIO
    TITLE "0:"
    INDEX 01 00:28:15
  TRACK 38 AUDIO
    TITLE "3:cjc153_0633"
    INDEX 01 00:28:41
  TRACK 39 AUDIO
    TITLE "0:"
    INDEX 01 00:29:62
  TRACK 40 AUDIO
    TITLE "2:cjc153_0634"
    INDEX 01 00:30:24
  TRACK 41 AUDIO
    TITLE "0:"
    INDEX 01 00:31:45
  TRACK 42 AUDIO
    TITLE "3:cjc153_0635"
    INDEX 01 00:31:71
  TRACK 43 AUDIO
    TITLE "0:"
    INDEX 01 00:33:21
  TRACK 44 AUDIO
    TITLE "2:cjc153_0636"
    INDEX 01 00:33:56
  TRACK 45 AUDIO
    TITLE "0:"
    INDEX 01 00:34:65
  TRACK 46 AUDIO
    TITLE "3:cjc153_0637"
    INDEX 01 00:35:15
  TRACK 47 AUDIO
    TITLE "0:"
    INDEX 01 00:36:27
  TRACK 48 AUDIO
    TITLE "2:cjc153_0638"
    INDEX 01 00:36:64
  TRACK 49 AUDIO
    TITLE "0:"
    INDEX 01 00:38:24
  TRACK 50 AUDIO
    TITLE "3:cjc153_0639"
    INDEX 01 00:38:45
  TRACK 51 AUDIO
    TITLE "0:"
    INDEX 01 00:40:01
  TRACK 52 AUDIO
    TITLE "2:cjc153_0640"
    INDEX 01 00:40:38
  TRACK 53 AUDIO
    TITLE "0:"
    INDEX 01 00:41:30
  TRACK 54 AUDIO
    TITLE "3:cjc153_0641"
    INDEX 01 00:41:65
  TRACK 55 AUDIO
    TITLE "0:"
    INDEX 01 00:42:61
  TRACK 56 AUDIO
    TITLE "2:cjc153_0642"
    INDEX 01 00:43:23
  TRACK 57 AUDIO
    TITLE "0:"
    INDEX 01 00:44:22
  TRACK 58 AUDIO
    TITLE "3:cjc153_0643"
    INDEX 01 00:44:48
  TRACK 59 AUDIO
    TITLE "0:"
    INDEX 01 00:45:53
  TRACK 60 AUDIO
    TITLE "2:cjc153_0644"
    INDEX 01 00:46:15
  TRACK 61 AUDIO
    TITLE "0:"
    INDEX 01 00:47:15
  TRACK 62 AUDIO
    TITLE "3:cjc153_0645"
    INDEX 01 00:47:40
  TRACK 63 AUDIO
    TITLE "0:"
    INDEX 01 00:48:40
  TRACK 64 AUDIO
    TITLE "2:cjc153_0646"
    INDEX 01 00:49:04
  TRACK 65 AUDIO
    TITLE "0:"
    INDEX 01 00:50:07
  TRACK 66 AUDIO
    TITLE "3:cjc153_0647"
    INDEX 01 00:50:33
  TRACK 67 AUDIO
    TITLE "0:"
    INDEX 01 00:51:42
  TRACK 68 AUDIO
    TITLE "2:cjc153_0648"
    INDEX 01 00:52:06
  TRACK 69 AUDIO
    TITLE "0:"
    INDEX 01 00:53:09
  TRACK 70 AUDIO
    TITLE "3:cjc153_0649"
    INDEX 01 00:53:37
  TRACK 71 AUDIO
    TITLE "0:"
    INDEX 01 00:54:44
  TRACK 72 AUDIO
    TITLE "2:cjc153_0650"
    INDEX 01 00:55:08
  TRACK 73 AUDIO
    TITLE "0:"
    INDEX 01 00:56:12
  TRACK 74 AUDIO
    TITLE "3:cjc153_0651"
    INDEX 01 00:56:39
  TRACK 75 AUDIO
    TITLE "0:"
    INDEX 01 00:57:50
  TRACK 76 AUDIO
    TITLE "2:cjc153_0652"
    INDEX 01 00:58:15
  TRACK 77 AUDIO
    TITLE "0:"
    INDEX 01 00:59:20
  TRACK 78 AUDIO
    TITLE "3:cjc153_0653"
    INDEX 01 00:59:45
  TRACK 79 AUDIO
    TITLE "0:"
    INDEX 01 01:00:57
  TRACK 80 AUDIO
    TITLE "2:cjc153_0654"
    INDEX 01 01:01:21
  TRACK 81 AUDIO
    TITLE "0:"
    INDEX 01 01:02:28
  TRACK 82 AUDIO
    TITLE "3:cjc153_0655"
    INDEX 01 01:02:54
  TRACK 83 AUDIO
    TITLE "0:"
    INDEX 01 01:03:67
  TRACK 84 AUDIO
    TITLE "2:cjc153_0656"
    INDEX 01 01:04:31
  TRACK 85 AUDIO
    TITLE "0:"
    INDEX 01 01:05:44
  TRACK 86 AUDIO
    TITLE "3:cjc153_0657"
    INDEX 01 01:05:71
  TRACK 87 AUDIO
    TITLE "0:"
    INDEX 01 01:07:12
